<?xml version="1.0" encoding="utf-8"?>
<svg xmlns="http://www.w3.org/2000/svg" xmlns:xlink="http://www.w3.org/1999/xlink" x="0px" y="0px"
  width="106px" height="43px" viewBox="0 0 106 43" enable-background="new 0 0 106 43" xml:space="preserve">
  <g>
    <path fill="#fff" d="M99,26.1c0.1-0.9,0.5-8.2,0.9-10.9c0.2-1.4,0.8-2.6,2-3.1c1.1-0.4,2.5-0.2,3.4,0.6
      c0.5,0.5,0.7,1.2,0.7,1.9c0.1,0.8,0,1.7-0.2,2.5c-0.3,1.8-1.9,8.8-2.4,10.5c-0.2,0.7-0.5,1.5-1.1,1.9c-0.6,0.4-1.3,0.5-2,0.2
      c-1-0.4-1.3-1.5-1.3-2.4C99,26.5,99,25.7,99,26.1C99.1,24.3,99,26.1,99,26.1z M97.2,35.2c-0.3-1.3,0.4-2.7,1.5-3.3
      c1.3-0.7,3-0.4,4,0.8c0.8,1,0.9,2.7,0.1,3.8c-0.4,0.5-1.1,0.9-1.8,1.1c-0.4,0.1-0.8,0.1-1.1,0C98.4,37.4,97.4,36.5,97.2,35.2z"/>
    <path fill="#fff" d="M81,35.2c-1.1-0.9-1.8-2.4-1.8-3.9c0-1.4,0.7-2.8,1.9-3.7c1.3-1,2.7-1.1,4.4-1c1.6,0,2.4,0,4-0.1
      c0.1,0,1.3-0.1,1.3-0.1s0-0.1,0-0.1c0-0.3,0-0.6,0-0.9c-0.1-0.7-0.7-1-1.3-1.3c-0.7-0.2-1.4-0.3-2.2-0.2c-0.8,0.1-1.3,0.5-1.8,1
      C85,25.4,84.6,26,83.9,26c-0.6,0.1-1.2-0.1-1.7-0.5c-1.2-1-0.9-2.5-0.1-3.5c1-1.2,2.5-1.8,4-1.9c1.6-0.2,3.3,0.1,4.9,0.5
      c1.4,0.4,2.9,1,3.8,2.2c1,1.3,1.1,2.9,0.9,4.5c-0.2,1.7-0.7,3.4-1,5.2c-0.2,0.9-0.2,1.7-0.1,2.6c0.1,0.8,0.1,1.6-0.3,2.2
      c-0.4,0.6-1.1,0.9-1.9,0.9c-0.8,0-1.4-0.3-1.9-0.9c-0.4-0.5-0.6-1-0.8-1.6c-2.5,1.1-4,1.1-5.1,1C83.5,36.5,82.2,36.1,81,35.2z
      M84.3,31.4c-0.1,1,0.8,1.6,1.7,1.7c1,0.2,2.2,0,3-0.7c0.8-0.7,1-1.7,1.2-2.6C88.9,30,86.8,30,86.3,30
      C85.8,30.1,84.4,30.2,84.3,31.4z"/>
    <path fill="#fff" d="M72.3,19.2c0,0-0.2-2-0.1-2.4c0-0.6,0.4-2.3,2.2-2.4c1.9-0.1,2.5,1.4,2.7,2c0.1,0.6,0.1,1.6,0.2,2.5
      c0,0,1.2,14.7,1.2,15.2c0,0.6,0,2.7-2.2,3c-2.2,0.2-2.7-1.7-2.8-2.7L72.3,19.2z"/>
    <path fill="#fff" d="M70.7,29.8c-0.5,2.7-1.7,5.1-4.2,6.4c-2.5,1.3-5.8,1.2-8.3-0.1c-1.3-0.7-2.4-1.7-3.1-2.9
      c-0.8-1.4-1.1-2.3-1.1-4.7c0-2.4,1.3-5.5,3.5-7.1c2.3-1.6,5.6-1.7,8.2-0.7c1.4,0.5,2.6,1.4,3.5,2.6c1,1.3,1.4,2.8,1.5,4.4
      C70.8,28.8,70.6,30.2,70.7,29.8C70.2,32.8,70.7,29.8,70.7,29.8z M65.7,29.1c0.1-1.2,0.2-2.6-0.5-3.7c-0.7-1.1-2.3-1.6-3.5-1.2
      c-1.4,0.4-2.1,2-2.4,3.3c-0.3,1.4-0.4,3.2,0.6,4.4c1,1.4,3.2,1.6,4.4,0.4c1-1,1.4-2.5,1.5-3.8C65.8,28.8,65.8,28.9,65.7,29.1
      C65.9,27.7,65.7,29.1,65.7,29.1z"/>
    <path fill="#fff" d="M50.6,21.2c1.1,1,1.7,2.3,1.9,3.7c0.3,1.7,0.8,7.1,0.9,8c0.1,0.8,0.1,1.6-0.3,2.3c-0.6,1.1-2,1.6-3.1,1.1
      c-1.4-0.6-1.5-2.4-1.7-3.7c-0.2-1.8-0.3-3.6-0.5-5.4c-0.2-1.4-0.5-3.3-2.3-3.2c-1.2,0.1-2.2,0.9-2.6,2.1c-0.2,0.7-0.2,1.5-0.1,2.2
      c0.1,0.9,0.4,4.2,0.5,4.9c0.1,0.6,0.2,1.3,0.1,1.9c-0.2,1.3-1.1,2.3-2.4,2.3c-0.6,0-1.2-0.2-1.6-0.6c-0.6-0.5-0.8-1.2-0.9-1.9
      c-0.3-1.8-1.5-14.5-1.7-16.3c-0.1-0.8-0.2-1.6,0.1-2.4c0.2-0.6,0.7-1,1.2-1.3c0.6-0.3,1.3-0.3,2-0.1c0.7,0.2,1.2,0.8,1.4,1.5
      c0.3,0.8,0.7,5.4,0.7,5.4c0.3-0.3,0.6-0.7,1.1-1C45.5,19.6,48.7,19.5,50.6,21.2z"/>
    <path fill="#fff" d="M29.3,16.8c-0.8-2.6,0.9-5.7,0.9-5.7s-0.8,0.1-2.8,1.8c-2,1.7-2,4.2-2,4.2c-2.4-5.6-7.2-9.1-9-11.5
      C14.6,3.1,15.9,0,15.9,0c-3.6,1.6-5.4,5.4-6,10c-0.5,4.6-3.4,6.3-3.4,6.3C6,12,1.1,10.9,1.1,10.9c1,0.4,2.8,5.3,0.9,8.9
      c-1.3,2.4-2,5-2,7.6C0,36,5.4,43,15.6,43c9.2,0,15.6-7,15.6-15.5C31.3,24.4,30.2,19.4,29.3,16.8z M21.1,22.3
      c1.2,0,2.2,1.4,2.2,3.1c0,1.7-1,3.1-2.2,3.1c-1.2,0-2.2-1.4-2.2-3.1C18.9,23.7,19.9,22.3,21.1,22.3z M9.9,22.3
      c1.2,0,2.2,1.4,2.2,3.1c0,1.7-1,3.1-2.2,3.1c-1.2,0-2.2-1.4-2.2-3.1C7.7,23.7,8.7,22.3,9.9,22.3z M15.6,40.2
      c-6.3,0-11.4-4.9-11.4-10.9c0-0.5,0.4-0.9,0.9-0.9S6,28.8,6,29.3c0,5,4.3,9.1,9.6,9.1c5.3,0,9.6-4.1,9.6-9.1
      c0-0.5,0.4-0.9,0.9-0.9s0.9,0.4,0.9,0.9C26.9,35.3,21.8,40.2,15.6,40.2z"/>
  </g>
</svg>
