<?xml version="1.0" encoding="utf-8" ?>
<!-- Generator: Adobe Illustrator 18.1.1, SVG Export Plug-In . SVG Version: 6.00 Build 0)  -->
<svg version="1.1" id="Layer_1" xmlns="http://www.w3.org/2000/svg" xmlns:xlink="http://www.w3.org/1999/xlink" x="0px" y="0px" width="105px" height="43px" viewBox="0 0 105 43" enable-background="new 0 0 105 43" xml:space="preserve">
  <g>
    <path fill="#40474F" d="M98,26.6c0.1-0.9,0.5-8.1,0.9-10.8c0.2-1.3,0.8-2.6,2-3c1.1-0.5,2.6-0.2,3.4,0.6c0.5,0.5,0.7,1.2,0.7,1.9
      c0.1,0.9,0,1.6-0.2,2.5c-0.3,1.8-1.9,8.7-2.4,10.4c-0.2,0.7-0.5,1.4-1.1,1.9s-1.3,0.5-2,0.2c-1-0.4-1.2-1.4-1.3-2.4
      C97.9,27.1,98,26.3,98,26.6C98.1,24.8,98,26.6,98,26.6z M96.1,35.6c-0.3-1.2,0.4-2.6,1.5-3.3c1.2-0.7,3-0.5,4,0.8
      c0.9,1,0.9,2.7,0.1,3.7c-0.4,0.5-1.1,0.9-1.8,1C99.5,38,99.1,38,98.8,38C97.4,37.8,96.4,36.9,96.1,35.6z" />

    <path fill="#40474F" d="M80.4,35.6c-1.1-0.9-1.8-2.4-1.7-3.8c0-1.4,0.7-2.8,1.8-3.6c1.3-1,2.6-1,4.3-1c1.6,0,2.3,0,3.9-0.1
      c0.1,0,1.2-0.1,1.2-0.1v-0.1c0-0.3,0-0.6-0.1-0.9c-0.1-0.7-1.6-1.7-3.3-1.5c-0.7,0.1-1.3,0.5-2,0.9c-2.9,1.5-3.9-1.6-3-2.7
      c0.9-1.2,2.4-1.8,3.9-1.9c1.6-0.2,3.2,0.1,4.7,0.5c1.4,0.4,2.8,1,3.7,2.2c1,1.2,1,2.9,0.9,4.4c-0.2,1.7-0.7,3.4-1,5.1
      c-0.1,0.9-0.1,1.6-0.1,2.5c0.1,0.7,0.1,1.6-0.3,2.2c-0.4,0.6-1.1,0.9-1.8,0.9c-0.7,0-1.4-0.3-1.8-0.9c-0.3-0.5-0.6-1-0.9-1.6
      c-2.4,1.1-3.9,1.1-5,1C82.9,36.9,81.5,36.5,80.4,35.6z M83.6,31.9c-0.1,1,0.8,1.6,1.6,1.7c0.9,0.2,2.1,0,2.9-0.7
      c0.7-0.7,1-1.6,1.2-2.6c-1.2,0.1-3.2,0.1-3.7,0.1C85,30.6,83.7,30.8,83.6,31.9z" />

    <path fill="#40474F" d="M71.3,19.9c0,0-0.2-2-0.1-2.4c0-0.5,0.4-2.3,2.2-2.4c1.8-0.1,2.4,1.4,2.6,2c0.1,0.6,0.1,1.6,0.2,2.4
      c0,0,1.2,14.4,1.2,15s0,2.6-2.2,3c-2.2,0.1-2.6-1.6-2.8-2.6L71.3,19.9z" />

    <path fill="#40474F" d="M69.6,30.3c-0.5,2.6-1.6,4.9-4,6.2s-5.5,1.1-7.9-0.1c-1.2-0.7-2.3-1.6-3-2.8c-0.8-1.4-1-2.2-1-4.5
      s1.2-5.3,3.4-6.8c2.2-1.6,5.4-1.6,7.9-0.7c1.3,0.5,2.5,1.4,3.3,2.5c0.9,1.2,1.4,2.7,1.4,4.3C69.7,29.3,69.5,30.6,69.6,30.3
      C69.2,33.2,69.6,30.3,69.6,30.3z M64.9,29.6c0.1-1.2,0.1-2.6-0.5-3.5c-0.7-1-2.2-1.5-3.4-1.1c-1.4,0.5-2,1.9-2.3,3.1
      c-0.3,1.4-0.3,3.1,0.5,4.3c1,1.3,3.1,1.5,4.3,0.4c1-0.9,1.3-2.4,1.5-3.7C64.9,29.2,64.9,29.4,64.9,29.6
      C65,28.3,64.9,29.6,64.9,29.6z" />

    <path fill="#40474F" d="M49.5,21.8c1.1,0.9,1.6,2.3,1.9,3.7c0.3,1.7,0.8,7,0.9,7.8c0.1,0.8,0.1,1.6-0.3,2.3c-0.5,1-2,1.6-3.1,1.1
      c-1.4-0.6-1.5-2.4-1.6-3.6c-0.2-1.8-0.3-3.5-0.5-5.2c-0.2-1.4-0.5-3.2-2.2-3.1c-1.2,0.1-2.2,0.9-2.6,2c-0.2,0.7-0.1,1.4-0.1,2.2
      c0.1,0.9,0.4,4.1,0.5,4.9c0.1,0.6,0.1,1.2,0.1,1.9C42.3,37,41.3,38,40.1,38c-0.6,0-1.2-0.2-1.6-0.6c-0.5-0.5-0.7-1.2-0.9-1.9
      c-0.3-1.7-1.4-14.2-1.7-15.9c-0.1-0.8-0.2-1.6,0.1-2.4c0.2-0.5,0.7-1,1.2-1.2c0.6-0.3,1.3-0.3,1.9-0.1c0.7,0.3,1.2,0.8,1.4,1.5
      c0.3,0.8,0.7,5.3,0.7,5.3c0.3-0.3,0.6-0.7,1.1-1C44.5,20.3,47.6,20.1,49.5,21.8z" />

    <radialGradient id="Body_1_" cx="-40.6248" cy="59.9099" r="42.7014" gradientTransform="matrix(0.9636 0 0 0.9636 55.258 -27.8372)" gradientUnits="userSpaceOnUse">
      <stop offset="5.000000e-002" style="stop-color:#EFAC00" />
      <stop offset="0.1743" style="stop-color:#EB9100" />
      <stop offset="0.4" style="stop-color:#E15600" />
      <stop offset="0.63" style="stop-color:#C82400" />
      <stop offset="0.7155" style="stop-color:#B91200" />
      <stop offset="0.8126" style="stop-color:#AE0500" />
      <stop offset="0.9" style="stop-color:#AA0000" />
    </radialGradient>
    <path id="Body_2_" fill="url(#Body_1_)" d="M31.2,27.5c0.2-3-0.9-8.1-1.8-10.6c-0.9-2.6,0.9-5.7,0.9-5.7s-0.9,0.1-2.8,1.8
      s-2,4.2-2,4.2c-2.4-5.5-7.2-9.1-9-11.5S16,0.2,16,0.2c-3.6,1.6-5.4,5.4-6,10c-0.5,4.6-3.5,6.3-3.5,6.3c-0.5-4.3-5.4-5.3-5.4-5.3
      c1,0.3,2.8,5.2,0.9,8.9c-1.2,2.4-2,5-2,7.5C0,36,5.4,42.9,15.5,42.9C24.8,43,31.2,36,31.2,27.5z" />
    <g>
      <ellipse fill="#333333" cx="21.1" cy="25.6" rx="2.2" ry="3.1" />
      <ellipse fill="#333333" cx="10" cy="25.6" rx="2.2" ry="3.1" />
    </g>
    <g>
      <path fill="#333333" d="M15.5,40.6C9.2,40.6,4,35.6,4,29.4c0-0.5,0.4-1,1-1s1,0.4,1,1c0,5.1,4.3,9.3,9.5,9.3s9.5-4.1,9.5-9.3
        c0-0.5,0.4-1,1-1s1,0.4,1,1C27,35.6,21.9,40.6,15.5,40.6z" />
    </g>
  </g>
</svg>
